<?xml version="1.0" encoding="UTF-8" standalone="no"?>
<svg
   xmlns:dc="http://purl.org/dc/elements/1.1/"
   xmlns:cc="http://creativecommons.org/ns#"
   xmlns:rdf="http://www.w3.org/1999/02/22-rdf-syntax-ns#"
   xmlns:svg="http://www.w3.org/2000/svg"
   xmlns="http://www.w3.org/2000/svg"
   xmlns:sodipodi="http://sodipodi.sourceforge.net/DTD/sodipodi-0.dtd"
   xmlns:inkscape="http://www.inkscape.org/namespaces/inkscape"
   width="210mm"
   height="297mm"
   viewBox="0 0 210 297"
   version="1.1"
   id="svg8"
   inkscape:version="1.0.2-2 (e86c870879, 2021-01-15)"
   sodipodi:docname="buttons.svg">
  <defs
     id="defs2">
    <inkscape:path-effect
       effect="fillet_chamfer"
       id="path-effect894"
       is_visible="true"
       lpeversion="1"
       satellites_param="F,0,0,1,0,2.6458333,0,1 @ F,0,0,1,0,2.6458333,0,1 @ F,0,0,1,0,2.6458333,0,1 @ F,0,0,1,0,2.6458333,0,1"
       unit="px"
       method="auto"
       mode="F"
       radius="10"
       chamfer_steps="1"
       flexible="false"
       use_knot_distance="true"
       apply_no_radius="true"
       apply_with_radius="true"
       only_selected="false"
       hide_knots="false" />
    <inkscape:path-effect
       effect="fillet_chamfer"
       id="path-effect892"
       is_visible="true"
       lpeversion="1"
       satellites_param="F,0,0,1,0,2.6458333,0,1 @ F,0,0,1,0,2.6458333,0,1 @ F,0,0,1,0,2.6458333,0,1 @ F,0,0,1,0,2.6458333,0,1"
       unit="px"
       method="auto"
       mode="F"
       radius="10"
       chamfer_steps="1"
       flexible="false"
       use_knot_distance="true"
       apply_no_radius="true"
       apply_with_radius="true"
       only_selected="false"
       hide_knots="false" />
    <inkscape:path-effect
       effect="fillet_chamfer"
       id="path-effect890"
       is_visible="true"
       lpeversion="1"
       satellites_param="F,0,0,1,0,2.6458333,0,1 @ F,0,0,1,0,2.6458333,0,1 @ F,0,0,1,0,2.6458333,0,1 @ F,0,0,1,0,2.6458333,0,1"
       unit="px"
       method="auto"
       mode="F"
       radius="10"
       chamfer_steps="1"
       flexible="false"
       use_knot_distance="true"
       apply_no_radius="true"
       apply_with_radius="true"
       only_selected="false"
       hide_knots="false" />
    <inkscape:path-effect
       effect="fillet_chamfer"
       id="path-effect888"
       is_visible="true"
       lpeversion="1"
       satellites_param="F,0,0,1,0,2.6458333,0,1 @ F,0,0,1,0,2.6458333,0,1 @ F,0,0,1,0,2.6458333,0,1 @ F,0,0,1,0,2.6458333,0,1"
       unit="px"
       method="auto"
       mode="F"
       radius="10"
       chamfer_steps="1"
       flexible="false"
       use_knot_distance="true"
       apply_no_radius="true"
       apply_with_radius="true"
       only_selected="false"
       hide_knots="false" />
    <inkscape:path-effect
       effect="fillet_chamfer"
       id="path-effect886"
       is_visible="true"
       lpeversion="1"
       satellites_param="F,0,0,1,0,2.6458333,0,1 @ F,0,0,1,0,2.6458333,0,1 @ F,0,0,1,0,2.6458333,0,1 @ F,0,0,1,0,2.6458333,0,1"
       unit="px"
       method="auto"
       mode="F"
       radius="10"
       chamfer_steps="1"
       flexible="false"
       use_knot_distance="true"
       apply_no_radius="true"
       apply_with_radius="true"
       only_selected="false"
       hide_knots="false" />
    <inkscape:path-effect
       effect="fillet_chamfer"
       id="path-effect884"
       is_visible="true"
       lpeversion="1"
       satellites_param="F,0,0,1,0,2.6458333,0,1 @ F,0,0,1,0,2.6458333,0,1 @ F,0,0,1,0,2.6458333,0,1 @ F,0,0,1,0,2.6458333,0,1"
       unit="px"
       method="auto"
       mode="F"
       radius="10"
       chamfer_steps="1"
       flexible="false"
       use_knot_distance="true"
       apply_no_radius="true"
       apply_with_radius="true"
       only_selected="false"
       hide_knots="false" />
    <inkscape:path-effect
       effect="fillet_chamfer"
       id="path-effect883"
       is_visible="true"
       lpeversion="1"
       satellites_param="F,0,0,1,0,2.6458333,0,1 @ F,0,0,1,0,2.6458333,0,1 @ F,0,0,1,0,2.6458333,0,1 @ F,0,0,1,0,2.6458333,0,1"
       unit="px"
       method="auto"
       mode="F"
       radius="10"
       chamfer_steps="1"
       flexible="false"
       use_knot_distance="true"
       apply_no_radius="true"
       apply_with_radius="true"
       only_selected="false"
       hide_knots="false" />
    <inkscape:path-effect
       effect="fillet_chamfer"
       id="path-effect881"
       is_visible="true"
       lpeversion="1"
       satellites_param="F,0,0,1,0,2.6458333,0,1 @ F,0,0,1,0,2.6458333,0,1 @ F,0,0,1,0,2.6458333,0,1 @ F,0,0,1,0,2.6458333,0,1"
       unit="px"
       method="auto"
       mode="F"
       radius="10"
       chamfer_steps="1"
       flexible="false"
       use_knot_distance="true"
       apply_no_radius="true"
       apply_with_radius="true"
       only_selected="false"
       hide_knots="false" />
    <inkscape:path-effect
       effect="fillet_chamfer"
       id="path-effect879"
       is_visible="true"
       lpeversion="1"
       satellites_param="F,0,0,1,0,2.6458333,0,1 @ F,0,0,1,0,2.6458333,0,1 @ F,0,0,1,0,2.6458333,0,1 @ F,0,0,1,0,2.6458333,0,1"
       unit="px"
       method="auto"
       mode="F"
       radius="10"
       chamfer_steps="1"
       flexible="false"
       use_knot_distance="true"
       apply_no_radius="true"
       apply_with_radius="true"
       only_selected="false"
       hide_knots="false" />
    <inkscape:path-effect
       effect="fillet_chamfer"
       id="path-effect960"
       is_visible="true"
       lpeversion="1"
       satellites_param="F,0,0,1,0,2.6458333,0,1 @ F,0,0,1,0,2.6458333,0,1 @ F,0,0,1,0,2.6458333,0,1 @ F,0,0,1,0,2.6458333,0,1"
       unit="px"
       method="auto"
       mode="F"
       radius="10"
       chamfer_steps="1"
       flexible="false"
       use_knot_distance="true"
       apply_no_radius="true"
       apply_with_radius="true"
       only_selected="false"
       hide_knots="false" />
    <inkscape:path-effect
       effect="fillet_chamfer"
       id="path-effect958"
       is_visible="true"
       lpeversion="1"
       satellites_param="F,0,0,1,0,2.6458333,0,1 @ F,0,0,1,0,2.6458333,0,1 @ F,0,0,1,0,2.6458333,0,1 @ F,0,0,1,0,2.6458333,0,1"
       unit="px"
       method="auto"
       mode="F"
       radius="10"
       chamfer_steps="1"
       flexible="false"
       use_knot_distance="true"
       apply_no_radius="true"
       apply_with_radius="true"
       only_selected="false"
       hide_knots="false" />
    <inkscape:path-effect
       effect="fillet_chamfer"
       id="path-effect956"
       is_visible="true"
       lpeversion="1"
       satellites_param="F,0,0,1,0,2.6458333,0,1 @ F,0,0,1,0,2.6458333,0,1 @ F,0,0,1,0,2.6458333,0,1 @ F,0,0,1,0,2.6458333,0,1"
       unit="px"
       method="auto"
       mode="F"
       radius="10"
       chamfer_steps="1"
       flexible="false"
       use_knot_distance="true"
       apply_no_radius="true"
       apply_with_radius="true"
       only_selected="false"
       hide_knots="false" />
    <inkscape:path-effect
       effect="fillet_chamfer"
       id="path-effect920"
       is_visible="true"
       lpeversion="1"
       satellites_param="F,0,0,1,0,2.6458333,0,1 @ F,0,0,1,0,2.6458333,0,1 @ F,0,0,1,0,2.6458333,0,1 @ F,0,0,1,0,2.6458333,0,1"
       unit="px"
       method="auto"
       mode="F"
       radius="10"
       chamfer_steps="1"
       flexible="false"
       use_knot_distance="true"
       apply_no_radius="true"
       apply_with_radius="true"
       only_selected="false"
       hide_knots="false" />
    <inkscape:path-effect
       effect="fillet_chamfer"
       id="path-effect918"
       is_visible="true"
       lpeversion="1"
       satellites_param="F,0,0,1,0,2.6458333,0,1 @ F,0,0,1,0,2.6458333,0,1 @ F,0,0,1,0,2.6458333,0,1 @ F,0,0,1,0,2.6458333,0,1"
       unit="px"
       method="auto"
       mode="F"
       radius="10"
       chamfer_steps="1"
       flexible="false"
       use_knot_distance="true"
       apply_no_radius="true"
       apply_with_radius="true"
       only_selected="false"
       hide_knots="false" />
    <inkscape:path-effect
       effect="fillet_chamfer"
       id="path-effect916"
       is_visible="true"
       lpeversion="1"
       satellites_param="F,0,0,1,0,2.6458333,0,1 @ F,0,0,1,0,2.6458333,0,1 @ F,0,0,1,0,2.6458333,0,1 @ F,0,0,1,0,2.6458333,0,1"
       unit="px"
       method="auto"
       mode="F"
       radius="10"
       chamfer_steps="1"
       flexible="false"
       use_knot_distance="true"
       apply_no_radius="true"
       apply_with_radius="true"
       only_selected="false"
       hide_knots="false" />
    <inkscape:path-effect
       effect="fillet_chamfer"
       id="path-effect882"
       is_visible="true"
       lpeversion="1"
       satellites_param="F,0,0,1,0,2.6458333,0,1 @ F,0,0,1,0,2.6458333,0,1 @ F,0,0,1,0,2.6458333,0,1 @ F,0,0,1,0,2.6458333,0,1"
       unit="px"
       method="auto"
       mode="F"
       radius="10"
       chamfer_steps="1"
       flexible="false"
       use_knot_distance="true"
       apply_no_radius="true"
       apply_with_radius="true"
       only_selected="false"
       hide_knots="false" />
    <inkscape:path-effect
       effect="fillet_chamfer"
       id="path-effect858"
       is_visible="true"
       lpeversion="1"
       satellites_param="F,0,0,1,0,2.6458333,0,1 @ F,0,0,1,0,2.6458333,0,1 @ F,0,0,1,0,2.6458333,0,1 @ F,0,0,1,0,2.6458333,0,1"
       unit="px"
       method="auto"
       mode="F"
       radius="10"
       chamfer_steps="1"
       flexible="false"
       use_knot_distance="true"
       apply_no_radius="true"
       apply_with_radius="true"
       only_selected="false"
       hide_knots="false" />
    <inkscape:path-effect
       effect="fillet_chamfer"
       id="path-effect835"
       is_visible="true"
       lpeversion="1"
       satellites_param="F,0,0,1,0,2.6458333,0,1 @ F,0,0,1,0,2.6458333,0,1 @ F,0,0,1,0,2.6458333,0,1 @ F,0,0,1,0,2.6458333,0,1"
       unit="px"
       method="auto"
       mode="F"
       radius="10"
       chamfer_steps="1"
       flexible="false"
       use_knot_distance="true"
       apply_no_radius="true"
       apply_with_radius="true"
       only_selected="false"
       hide_knots="false" />
  </defs>
  <sodipodi:namedview
     id="base"
     pagecolor="#ffffff"
     bordercolor="#666666"
     borderopacity="1.0"
     inkscape:pageopacity="0.0"
     inkscape:pageshadow="2"
     inkscape:zoom="0.7"
     inkscape:cx="450.03156"
     inkscape:cy="665.17634"
     inkscape:document-units="mm"
     inkscape:current-layer="layer1"
     inkscape:document-rotation="0"
     showgrid="false"
     inkscape:window-width="1920"
     inkscape:window-height="1129"
     inkscape:window-x="1040"
     inkscape:window-y="2152"
     inkscape:window-maximized="1" />
  <metadata
     id="metadata5">
    <rdf:RDF>
      <cc:Work
         rdf:about="">
        <dc:format>image/svg+xml</dc:format>
        <dc:type
           rdf:resource="http://purl.org/dc/dcmitype/StillImage" />
        <dc:title />
      </cc:Work>
    </rdf:RDF>
  </metadata>
  <g
     inkscape:label="Layer 1"
     inkscape:groupmode="layer"
     id="layer1">
    <path
       style="opacity:0.995;fill:#0099ff;stroke-width:0.070144;stroke-linecap:round;fill-opacity:1"
       id="rect833"
       width="50.799999"
       height="25.4"
       x="17.907059"
       y="24.054256"
       inkscape:path-effect="#path-effect835"
       d="m 20.552892,24.054256 h 45.508333 a 2.6458333,2.6458333 45 0 1 2.645833,2.645834 v 20.108333 a 2.6458333,2.6458333 135 0 1 -2.645833,2.645833 H 20.552892 A 2.6458333,2.6458333 45 0 1 17.907059,46.808423 V 26.70009 a 2.6458333,2.6458333 135 0 1 2.645833,-2.645834 z"
       sodipodi:type="rect"
       inkscape:export-xdpi="96"
       inkscape:export-ydpi="96" />
    <path
       style="opacity:0.995;fill:#008ae6;fill-opacity:1;stroke-width:0.070144;stroke-linecap:round"
       id="rect833-8"
       width="50.799999"
       height="25.4"
       x="18.432203"
       y="55.98827"
       inkscape:path-effect="#path-effect858"
       sodipodi:type="rect"
       d="m 21.078037,55.98827 h 45.508332 a 2.6458333,2.6458333 45 0 1 2.645834,2.645833 v 20.108333 a 2.6458333,2.6458333 135 0 1 -2.645834,2.645833 H 21.078037 A 2.6458333,2.6458333 45 0 1 18.432203,78.742436 V 58.634103 a 2.6458333,2.6458333 135 0 1 2.645834,-2.645833 z"
       inkscape:export-xdpi="96"
       inkscape:export-ydpi="96" />
    <path
       style="opacity:0.995;fill:#003659;fill-opacity:1;stroke-width:0.070144;stroke-linecap:round"
       id="rect833-8-2"
       width="50.799999"
       height="25.4"
       x="18.699472"
       y="86.991531"
       inkscape:path-effect="#path-effect882"
       sodipodi:type="rect"
       d="m 21.345306,86.991531 h 45.508332 a 2.6458333,2.6458333 45 0 1 2.645834,2.645834 V 109.7457 a 2.6458333,2.6458333 135 0 1 -2.645834,2.64583 H 21.345306 A 2.6458333,2.6458333 45 0 1 18.699472,109.7457 V 89.637365 a 2.6458333,2.6458333 135 0 1 2.645834,-2.645834 z"
       inkscape:export-xdpi="96"
       inkscape:export-ydpi="96" />
    <path
       style="opacity:0.995;fill:#000000;fill-opacity:1;stroke-width:0.070144;stroke-linecap:round"
       id="rect833-4"
       width="50.799999"
       height="25.4"
       x="123.88236"
       y="31.4266"
       inkscape:path-effect="#path-effect916"
       sodipodi:type="rect"
       inkscape:export-xdpi="96"
       inkscape:export-ydpi="96"
       d="m 126.5282,31.4266 h 45.50833 a 2.6458333,2.6458333 45 0 1 2.64583,2.645833 v 20.108333 a 2.6458333,2.6458333 135 0 1 -2.64583,2.645833 H 126.5282 a 2.6458333,2.6458333 45 0 1 -2.64584,-2.645833 V 34.072433 A 2.6458333,2.6458333 135 0 1 126.5282,31.4266 Z" />
    <path
       style="opacity:0.995;fill:#580013;fill-opacity:1;stroke-width:0.070144;stroke-linecap:round"
       id="rect833-8-9"
       width="50.799999"
       height="25.4"
       x="124.40751"
       y="63.360622"
       inkscape:path-effect="#path-effect918"
       sodipodi:type="rect"
       inkscape:export-xdpi="96"
       inkscape:export-ydpi="96"
       d="m 127.05334,63.360622 h 45.50833 a 2.6458333,2.6458333 45 0 1 2.64584,2.645834 v 20.108333 a 2.6458333,2.6458333 135 0 1 -2.64584,2.645833 h -45.50833 a 2.6458333,2.6458333 45 0 1 -2.64583,-2.645833 V 66.006456 a 2.6458333,2.6458333 135 0 1 2.64583,-2.645834 z" />
    <path
       style="opacity:0.995;fill:#84001d;fill-opacity:1;stroke-width:0.070144;stroke-linecap:round"
       id="rect833-8-2-4"
       width="50.799999"
       height="25.4"
       x="124.67478"
       y="94.363869"
       inkscape:path-effect="#path-effect920"
       sodipodi:type="rect"
       inkscape:export-xdpi="96"
       inkscape:export-ydpi="96"
       d="m 127.32062,94.363869 h 45.50833 a 2.6458333,2.6458333 45 0 1 2.64583,2.645833 v 20.108338 a 2.6458333,2.6458333 135 0 1 -2.64583,2.64583 h -45.50833 a 2.6458333,2.6458333 45 0 1 -2.64584,-2.64583 V 97.009702 a 2.6458333,2.6458333 135 0 1 2.64584,-2.645833 z" />
    <path
       style="opacity:0.995;fill:#000000;fill-opacity:1;stroke-width:0.070144;stroke-linecap:round"
       id="rect833-4-3"
       width="50.799999"
       height="25.4"
       x="197.9657"
       y="30.292675"
       inkscape:path-effect="#path-effect956"
       sodipodi:type="rect"
       inkscape:export-xdpi="96"
       inkscape:export-ydpi="96"
       d="m 200.61153,30.292675 h 45.50833 a 2.6458333,2.6458333 45 0 1 2.64584,2.645833 v 20.108333 a 2.6458333,2.6458333 135 0 1 -2.64584,2.645834 H 200.61153 A 2.6458333,2.6458333 45 0 1 197.9657,53.046841 V 32.938508 a 2.6458333,2.6458333 135 0 1 2.64583,-2.645833 z" />
    <path
       style="opacity:0.995;fill:#580013;fill-opacity:1;stroke-width:0.070144;stroke-linecap:round"
       id="rect833-8-9-5"
       width="50.799999"
       height="25.4"
       x="198.49084"
       y="62.2267"
       inkscape:path-effect="#path-effect958"
       sodipodi:type="rect"
       inkscape:export-xdpi="96"
       inkscape:export-ydpi="96"
       d="m 201.13668,62.2267 h 45.50833 a 2.6458333,2.6458333 45 0 1 2.64583,2.645833 v 20.108333 a 2.6458333,2.6458333 135 0 1 -2.64583,2.645833 h -45.50833 a 2.6458333,2.6458333 45 0 1 -2.64584,-2.645833 V 64.872533 a 2.6458333,2.6458333 135 0 1 2.64584,-2.645833 z" />
    <path
       style="opacity:0.995;fill:#ff0000;fill-opacity:1;stroke-width:0.070144;stroke-linecap:round"
       id="rect833-8-2-4-8"
       width="50.799999"
       height="25.4"
       x="198.75812"
       y="93.229942"
       inkscape:path-effect="#path-effect960"
       sodipodi:type="rect"
       inkscape:export-xdpi="96"
       inkscape:export-ydpi="96"
       d="m 201.40395,93.229942 h 45.50833 a 2.6458333,2.6458333 45 0 1 2.64584,2.645834 v 20.108334 a 2.6458333,2.6458333 135 0 1 -2.64584,2.64583 h -45.50833 a 2.6458333,2.6458333 45 0 1 -2.64583,-2.64583 V 95.875776 a 2.6458333,2.6458333 135 0 1 2.64583,-2.645834 z" />
    <path
       style="opacity:0.995;fill:#92005d;fill-opacity:1;stroke-width:0.070144;stroke-linecap:round"
       id="rect833-1"
       width="50.799999"
       height="25.4"
       x="302.28714"
       y="22.733149"
       inkscape:path-effect="#path-effect879"
       sodipodi:type="rect"
       inkscape:export-xdpi="96"
       inkscape:export-ydpi="96"
       d="m 304.93297,22.733149 h 45.50834 a 2.6458333,2.6458333 45 0 1 2.64583,2.645833 v 20.108333 a 2.6458333,2.6458333 135 0 1 -2.64583,2.645833 h -45.50834 a 2.6458333,2.6458333 45 0 1 -2.64583,-2.645833 V 25.378982 a 2.6458333,2.6458333 135 0 1 2.64583,-2.645833 z" />
    <path
       style="opacity:0.995;fill:#d20086;fill-opacity:1;stroke-width:0.070144;stroke-linecap:round"
       id="rect833-8-2-3"
       width="50.799999"
       height="25.4"
       x="303.07953"
       y="85.670425"
       inkscape:path-effect="#path-effect883"
       sodipodi:type="rect"
       inkscape:export-xdpi="96"
       inkscape:export-ydpi="96"
       d="m 305.72536,85.670425 h 45.50833 a 2.6458333,2.6458333 45 0 1 2.64584,2.645834 v 20.108331 a 2.6458333,2.6458333 135 0 1 -2.64584,2.64584 h -45.50833 a 2.6458333,2.6458333 45 0 1 -2.64583,-2.64584 V 88.316259 a 2.6458333,2.6458333 135 0 1 2.64583,-2.645834 z" />
    <path
       style="opacity:0.995;fill:#00838b;fill-opacity:1;stroke-width:0.070144;stroke-linecap:round"
       id="rect833-7"
       width="50.799999"
       height="25.4"
       x="23.381376"
       y="177.13052"
       inkscape:path-effect="#path-effect884"
       sodipodi:type="rect"
       inkscape:export-xdpi="96"
       inkscape:export-ydpi="96"
       d="m 26.02721,177.13052 h 45.508332 a 2.6458333,2.6458333 45 0 1 2.645834,2.64584 v 20.10833 a 2.6458333,2.6458333 135 0 1 -2.645834,2.64583 H 26.02721 a 2.6458333,2.6458333 45 0 1 -2.645834,-2.64583 v -20.10833 a 2.6458333,2.6458333 135 0 1 2.645834,-2.64584 z" />
    <path
       style="opacity:0.995;fill:#00d0dd;fill-opacity:1;stroke-width:0.070144;stroke-linecap:round"
       id="rect833-8-1"
       width="50.799999"
       height="25.4"
       x="23.906523"
       y="209.06454"
       inkscape:path-effect="#path-effect886"
       sodipodi:type="rect"
       inkscape:export-xdpi="96"
       inkscape:export-ydpi="96"
       d="m 26.552356,209.06454 h 45.508333 a 2.6458333,2.6458333 45 0 1 2.645833,2.64584 v 20.10833 a 2.6458333,2.6458333 135 0 1 -2.645833,2.64583 H 26.552356 a 2.6458333,2.6458333 45 0 1 -2.645833,-2.64583 v -20.10833 a 2.6458333,2.6458333 135 0 1 2.645833,-2.64584 z"
       inkscape:export-filename="cam_button-pressed 192x96.png" />
    <path
       style="opacity:0.995;fill:#002b61;fill-opacity:1;stroke-width:0.070144;stroke-linecap:round"
       id="rect833-8-2-32"
       width="50.799999"
       height="25.4"
       x="24.173796"
       y="240.06779"
       inkscape:path-effect="#path-effect888"
       sodipodi:type="rect"
       inkscape:export-xdpi="96"
       inkscape:export-ydpi="96"
       d="m 26.819629,240.06779 h 45.508333 a 2.6458333,2.6458333 45 0 1 2.645833,2.64584 v 20.10833 a 2.6458333,2.6458333 135 0 1 -2.645833,2.64583 H 26.819629 a 2.6458333,2.6458333 45 0 1 -2.645833,-2.64583 v -20.10833 a 2.6458333,2.6458333 135 0 1 2.645833,-2.64584 z"
       inkscape:export-filename="cam_button-selected 192x96.png" />
    <path
       style="opacity:0.995;fill:#696969;fill-opacity:1;stroke-width:0.070144;stroke-linecap:round"
       id="rect833-7-8"
       width="50.799999"
       height="25.4"
       x="101.20379"
       y="180.72719"
       inkscape:path-effect="#path-effect890"
       sodipodi:type="rect"
       inkscape:export-xdpi="96"
       inkscape:export-ydpi="96"
       d="m 103.84962,180.72719 h 45.50833 a 2.6458333,2.6458333 45 0 1 2.64584,2.64583 v 20.10833 a 2.6458333,2.6458333 135 0 1 -2.64584,2.64584 h -45.50833 a 2.6458333,2.6458333 45 0 1 -2.64583,-2.64584 v -20.10833 a 2.6458333,2.6458333 135 0 1 2.64583,-2.64583 z" />
    <path
       style="opacity:0.995;fill:#b9b9b9;fill-opacity:1;stroke-width:0.070144;stroke-linecap:round"
       id="rect833-8-1-2"
       width="50.799999"
       height="25.4"
       x="101.72894"
       y="212.66121"
       inkscape:path-effect="#path-effect892"
       sodipodi:type="rect"
       inkscape:export-xdpi="96"
       inkscape:export-ydpi="96"
       inkscape:export-filename="cam_button-pressed 192x96.png"
       d="m 104.37478,212.66121 h 45.50833 a 2.6458333,2.6458333 45 0 1 2.64583,2.64583 v 20.10834 a 2.6458333,2.6458333 135 0 1 -2.64583,2.64583 h -45.50833 a 2.6458333,2.6458333 45 0 1 -2.64584,-2.64583 v -20.10834 a 2.6458333,2.6458333 135 0 1 2.64584,-2.64583 z" />
    <path
       style="opacity:0.995;fill:#002034;fill-opacity:1;stroke-width:0.070144;stroke-linecap:round"
       id="rect833-8-2-32-1"
       width="50.799999"
       height="25.4"
       x="101.99621"
       y="243.66447"
       inkscape:path-effect="#path-effect894"
       sodipodi:type="rect"
       inkscape:export-xdpi="96"
       inkscape:export-ydpi="96"
       inkscape:export-filename="cam_button-selected 192x96.png"
       d="m 104.64204,243.66447 h 45.50833 a 2.6458333,2.6458333 45 0 1 2.64584,2.64584 v 20.10833 a 2.6458333,2.6458333 135 0 1 -2.64584,2.64583 h -45.50833 a 2.6458333,2.6458333 45 0 1 -2.64583,-2.64583 v -20.10833 a 2.6458333,2.6458333 135 0 1 2.64583,-2.64584 z" />
  </g>
</svg>
