<svg id="SvgjsSvg1012" width="288" height="288" xmlns="http://www.w3.org/2000/svg" version="1.1" xmlns:xlink="http://www.w3.org/1999/xlink" xmlns:svgjs="http://svgjs.com/svgjs"><defs id="SvgjsDefs1013"></defs><g id="SvgjsG1014"><svg xmlns="http://www.w3.org/2000/svg" viewBox="0 0 48 24" width="288" height="288"><g data-name="Layer 2"><path d="M44 4h-3.11a11.87 11.87 0 0 0-17.78 0H4a4 4 0 0 0-4 4v12a4 4 0 0 0 4 4h40a4 4 0 0 0 4-4V8a4 4 0 0 0-4-4zM6 12a2 2 0 1 1 2-2 2 2 0 0 1-2 2zm26 8a8 8 0 1 1 8-8 8 8 0 0 1-8 8z" data-name="Layer 1" fill="#ffffff" class="color000 svgShape"></path></g></svg></g></svg>