<?xml version="1.0" encoding="UTF-8" standalone="no"?>
<svg
   xmlns:dc="http://purl.org/dc/elements/1.1/"
   xmlns:cc="http://creativecommons.org/ns#"
   xmlns:rdf="http://www.w3.org/1999/02/22-rdf-syntax-ns#"
   xmlns:svg="http://www.w3.org/2000/svg"
   xmlns="http://www.w3.org/2000/svg"
   xmlns:sodipodi="http://sodipodi.sourceforge.net/DTD/sodipodi-0.dtd"
   xmlns:inkscape="http://www.inkscape.org/namespaces/inkscape"
   viewBox="0 0 160 160"
   version="1.1"
   id="svg4"
   sodipodi:docname="desktop-solid.svg"
   width="160"
   height="160"
   inkscape:export-filename="C:\Users\mathew.klucznyk.GUSS\Programming\GitProjects\UTSC_IC2\UI\Assets\VTPro Icons\desktop-solid.png"
   inkscape:export-xdpi="96"
   inkscape:export-ydpi="96"
   inkscape:version="1.0.2-2 (e86c870879, 2021-01-15)">
  <metadata
     id="metadata10">
    <rdf:RDF>
      <cc:Work
         rdf:about="">
        <dc:format>image/svg+xml</dc:format>
        <dc:type
           rdf:resource="http://purl.org/dc/dcmitype/StillImage" />
        <dc:title></dc:title>
      </cc:Work>
    </rdf:RDF>
  </metadata>
  <defs
     id="defs8" />
  <sodipodi:namedview
     pagecolor="#7d7d7d"
     bordercolor="#666666"
     borderopacity="1"
     objecttolerance="10"
     gridtolerance="10"
     guidetolerance="10"
     inkscape:pageopacity="0"
     inkscape:pageshadow="2"
     inkscape:window-width="1920"
     inkscape:window-height="1129"
     id="namedview6"
     showgrid="false"
     inkscape:zoom="1.078125"
     inkscape:cx="-277.9698"
     inkscape:cy="40.37045"
     inkscape:window-x="1040"
     inkscape:window-y="2152"
     inkscape:window-maximized="1"
     inkscape:current-layer="svg4" />
  <!--!Font Awesome Free 6.5.2 by @fontawesome - https://fontawesome.com License - https://fontawesome.com/license/free Copyright 2024 Fonticons, Inc.-->
  <path
     d="M 42.666667,37.333334 C 36.783333,37.333334 32,42.116667 32,48.000001 v 48.000001 c 0,5.883328 4.783333,10.666668 10.666667,10.666668 H 72 L 70.216666,112 h -11.55 c -2.949999,0 -5.333332,2.38334 -5.333332,5.33333 0,2.95 2.383333,5.33334 5.333332,5.33334 h 42.666674 c 2.94999,0 5.33332,-2.38334 5.33332,-5.33334 0,-2.94999 -2.38333,-5.33333 -5.33332,-5.33333 H 89.783334 L 88,106.66667 h 29.33333 C 123.21667,106.66667 128,101.88333 128,96.000002 V 48.000001 c 0,-5.883334 -4.78333,-10.666667 -10.66667,-10.666667 z M 117.33333,48.000001 V 85.333334 H 42.666667 V 48.000001 Z"
     id="path2"
     style="fill:#ffffff;fill-opacity:1;stroke-width:0.166667" />
</svg>
