<?xml version="1.0" encoding="UTF-8" standalone="no"?>
<svg
   xmlns:dc="http://purl.org/dc/elements/1.1/"
   xmlns:cc="http://creativecommons.org/ns#"
   xmlns:rdf="http://www.w3.org/1999/02/22-rdf-syntax-ns#"
   xmlns:svg="http://www.w3.org/2000/svg"
   xmlns="http://www.w3.org/2000/svg"
   xmlns:sodipodi="http://sodipodi.sourceforge.net/DTD/sodipodi-0.dtd"
   xmlns:inkscape="http://www.inkscape.org/namespaces/inkscape"
   viewBox="0 0 160 160"
   version="1.1"
   id="svg4"
   sodipodi:docname="eye-solid.svg"
   width="160"
   height="160"
   inkscape:version="1.0.2-2 (e86c870879, 2021-01-15)"
   inkscape:export-filename="C:\Users\mathew.klucznyk.GUSS\Programming\GitProjects\UTSC_IC2\UI\Assets\VTPro Icons\eye-solid.png"
   inkscape:export-xdpi="96"
   inkscape:export-ydpi="96">
  <metadata
     id="metadata10">
    <rdf:RDF>
      <cc:Work
         rdf:about="">
        <dc:format>image/svg+xml</dc:format>
        <dc:type
           rdf:resource="http://purl.org/dc/dcmitype/StillImage" />
        <dc:title></dc:title>
      </cc:Work>
    </rdf:RDF>
  </metadata>
  <defs
     id="defs8" />
  <sodipodi:namedview
     pagecolor="#ffffff"
     bordercolor="#666666"
     borderopacity="1"
     objecttolerance="10"
     gridtolerance="10"
     guidetolerance="10"
     inkscape:pageopacity="0"
     inkscape:pageshadow="2"
     inkscape:window-width="2560"
     inkscape:window-height="1417"
     id="namedview6"
     showgrid="false"
     inkscape:pagecheckerboard="true"
     inkscape:zoom="1.4355469"
     inkscape:cx="288"
     inkscape:cy="256"
     inkscape:window-x="-8"
     inkscape:window-y="-8"
     inkscape:window-maximized="1"
     inkscape:current-layer="svg4" />
  <!--!Font Awesome Free 6.5.2 by @fontawesome - https://fontawesome.com License - https://fontawesome.com/license/free Copyright 2024 Fonticons, Inc.-->
  <path
     d="m 79.991667,42.669908 c -13.465498,0 -24.247895,6.132801 -32.097214,13.432168 -7.799323,7.232705 -13.015537,15.898619 -15.481989,21.848103 -0.549953,1.316552 -0.549953,2.783092 0,4.099644 2.466452,5.949485 7.682666,14.615399 15.481989,21.848107 7.849319,7.29936 18.631716,13.43216 32.097214,13.43216 13.465499,0 24.247893,-6.1328 32.097213,-13.43216 7.79932,-7.249376 13.01554,-15.898622 15.49866,-21.848107 0.54995,-1.316552 0.54995,-2.783092 0,-4.099644 C 125.10442,72.000695 119.8882,63.334781 112.08888,56.102076 104.23956,48.802709 93.457166,42.669908 79.991667,42.669908 Z M 55.99375,80.000001 a 23.997917,23.997917 0 1 1 47.99583,0 23.997917,23.997917 0 1 1 -47.99583,0 z M 79.991667,69.33426 c 0,5.882823 -4.782918,10.665741 -10.665741,10.665741 -1.18323,0 -2.316465,-0.199983 -3.38304,-0.549953 -0.916587,-0.299973 -1.98316,0.266644 -1.94983,1.233227 0.05,1.1499 0.216648,2.2998 0.533287,3.449699 2.283135,8.532594 11.065706,13.59882 19.598298,11.315688 8.532593,-2.283138 13.598819,-11.06571 11.315687,-19.598301 -1.849842,-6.916066 -7.965977,-11.565662 -14.765387,-11.848972 -0.966583,-0.03333 -1.5332,1.016579 -1.233226,1.949831 0.349969,1.066575 0.549952,2.19981 0.549952,3.38304 z"
     id="path2"
     style="fill:#ffffff;fill-opacity:1;stroke-width:0.166652" />
</svg>
