<?xml version="1.0" encoding="UTF-8" standalone="no"?>
<svg
   xmlns:dc="http://purl.org/dc/elements/1.1/"
   xmlns:cc="http://creativecommons.org/ns#"
   xmlns:rdf="http://www.w3.org/1999/02/22-rdf-syntax-ns#"
   xmlns:svg="http://www.w3.org/2000/svg"
   xmlns="http://www.w3.org/2000/svg"
   xmlns:sodipodi="http://sodipodi.sourceforge.net/DTD/sodipodi-0.dtd"
   xmlns:inkscape="http://www.inkscape.org/namespaces/inkscape"
   viewBox="0 0 160 160"
   version="1.1"
   id="svg4"
   sodipodi:docname="heart-solid.svg"
   width="160"
   height="160"
   inkscape:export-filename="C:\Users\mathew.klucznyk.GUSS\Programming\GitProjects\UTSC_IC2\UI\Assets\VTPro Icons\heart-solid.png"
   inkscape:export-xdpi="96"
   inkscape:export-ydpi="96"
   inkscape:version="1.0.2-2 (e86c870879, 2021-01-15)">
  <metadata
     id="metadata10">
    <rdf:RDF>
      <cc:Work
         rdf:about="">
        <dc:format>image/svg+xml</dc:format>
        <dc:type
           rdf:resource="http://purl.org/dc/dcmitype/StillImage" />
        <dc:title></dc:title>
      </cc:Work>
    </rdf:RDF>
  </metadata>
  <defs
     id="defs8" />
  <sodipodi:namedview
     pagecolor="#ffffff"
     bordercolor="#666666"
     borderopacity="1"
     objecttolerance="10"
     gridtolerance="10"
     guidetolerance="10"
     inkscape:pageopacity="0"
     inkscape:pageshadow="2"
     inkscape:window-width="2560"
     inkscape:window-height="1417"
     id="namedview6"
     showgrid="false"
     inkscape:pagecheckerboard="true"
     inkscape:zoom="1.4355469"
     inkscape:cx="256"
     inkscape:cy="256"
     inkscape:window-x="-8"
     inkscape:window-y="-8"
     inkscape:window-maximized="1"
     inkscape:current-layer="svg4" />
  <!--!Font Awesome Free 6.5.2 by @fontawesome - https://fontawesome.com License - https://fontawesome.com/license/free Copyright 2024 Fonticons, Inc.-->
  <path
     d="M 40.925,87.373353 74.80625,119.0046 c 1.40625,1.3125 3.2625,2.04375 5.19375,2.04375 1.93125,0 3.7875,-0.73125 5.19375,-2.04375 L 119.075,87.373353 c 5.7,-5.30625 8.925,-12.75 8.925,-20.53125 v -1.0875 c 0,-13.10625 -9.46875,-24.28125 -22.3875,-26.4375 -8.55,-1.425 -17.25,1.36875 -23.3625,7.48125 l -2.25,2.25 -2.25,-2.25 C 71.6375,40.685853 62.9375,37.892103 54.3875,39.317103 41.46875,41.473353 32,52.648353 32,65.754603 v 1.0875 c 0,7.78125 3.225,15.225 8.925,20.53125 z"
     id="path2"
     style="fill:#ffffff;fill-opacity:1;stroke-width:0.1875" />
</svg>
