<?xml version="1.0" encoding="UTF-8" standalone="no"?>
<svg
   xmlns:dc="http://purl.org/dc/elements/1.1/"
   xmlns:cc="http://creativecommons.org/ns#"
   xmlns:rdf="http://www.w3.org/1999/02/22-rdf-syntax-ns#"
   xmlns:svg="http://www.w3.org/2000/svg"
   xmlns="http://www.w3.org/2000/svg"
   xmlns:sodipodi="http://sodipodi.sourceforge.net/DTD/sodipodi-0.dtd"
   xmlns:inkscape="http://www.inkscape.org/namespaces/inkscape"
   viewBox="0 0 160 160"
   version="1.1"
   id="svg4"
   sodipodi:docname="microphone-lines-slash-solid.svg"
   width="160"
   height="160"
   inkscape:version="1.0.2-2 (e86c870879, 2021-01-15)"
   inkscape:export-filename="C:\Users\mathew.klucznyk.GUSS\Programming\GitProjects\UTSC_IC2\UI\Assets\VTPro Icons\microphone-lines-slash-solid.png"
   inkscape:export-xdpi="96"
   inkscape:export-ydpi="96">
  <metadata
     id="metadata10">
    <rdf:RDF>
      <cc:Work
         rdf:about="">
        <dc:format>image/svg+xml</dc:format>
        <dc:type
           rdf:resource="http://purl.org/dc/dcmitype/StillImage" />
        <dc:title></dc:title>
      </cc:Work>
    </rdf:RDF>
  </metadata>
  <defs
     id="defs8" />
  <sodipodi:namedview
     pagecolor="#ffffff"
     bordercolor="#666666"
     borderopacity="1"
     objecttolerance="10"
     gridtolerance="10"
     guidetolerance="10"
     inkscape:pageopacity="0"
     inkscape:pageshadow="2"
     inkscape:window-width="2560"
     inkscape:window-height="1417"
     id="namedview6"
     showgrid="false"
     inkscape:zoom="1.4355469"
     inkscape:cx="320"
     inkscape:cy="256"
     inkscape:window-x="-8"
     inkscape:window-y="-8"
     inkscape:window-maximized="1"
     inkscape:current-layer="svg4"
     inkscape:pagecheckerboard="true" />
  <!--!Font Awesome Free 6.5.2 by @fontawesome - https://fontawesome.com License - https://fontawesome.com/license/free Copyright 2024 Fonticons, Inc.-->
  <path
     d="m 37.820597,42.365533 c -1.559978,-1.229983 -3.824946,-0.944987 -5.054929,0.614991 -1.229982,1.559977 -0.944986,3.824946 0.614992,5.054929 l 88.79874,69.599017 c 1.55998,1.22998 3.82495,0.94498 5.05493,-0.61499 1.22999,-1.55998 0.94499,-3.82495 -0.61499,-5.05494 L 102.81468,93.304814 C 105.09465,89.404868 106.39963,84.859932 106.39963,80 v -5.999914 c 0,-1.994972 -1.60498,-3.59995 -3.59995,-3.59995 -1.99497,0 -3.599949,1.604978 -3.599949,3.59995 V 77.600034 80 c 0,3.179955 -0.764988,6.164913 -2.12997,8.804876 l -2.669958,-2.08497 V 80 h -8.564885 l -5.174926,-4.049942 c 0.434993,-0.464994 1.049985,-0.749989 1.739975,-0.749989 H 94.399803 V 70.400136 H 82.399967 c -1.319982,0 -2.399966,-1.079984 -2.399966,-2.399966 0,-1.319981 1.079984,-2.399966 2.399966,-2.399966 H 94.399803 V 60.800272 H 82.399967 c -1.319982,0 -2.399966,-1.079985 -2.399966,-2.399966 0,-1.319982 1.079984,-2.399966 2.399966,-2.399966 h 11.999836 c 0,-7.949888 -6.449915,-14.399797 -14.399802,-14.399797 -7.949888,0 -14.399796,6.449909 -14.399796,14.399797 v 8.144885 z M 85.72992,98.329742 C 83.914945,98.899736 81.994972,99.19973 80.000001,99.19973 69.39515,99.19973 60.800272,90.604851 60.800272,80 v -1.304981 l -7.094899,-5.594921 c -0.075,0.284996 -0.104999,0.584992 -0.104999,0.899988 V 80 c 0,13.364814 9.929859,24.40466 22.799677,26.15963 v 5.03993 h -7.199898 c -1.994971,0 -3.599948,1.60498 -3.599948,3.59995 0,1.99497 1.604977,3.59995 3.599948,3.59995 h 10.799848 10.799847 c 1.994973,0 3.599955,-1.60498 3.599955,-3.59995 0,-1.99497 -1.604982,-3.59995 -3.599955,-3.59995 H 83.59995 v -5.03993 c 3.059956,-0.41999 5.954916,-1.36498 8.594877,-2.72997 L 85.72992,98.344742 Z"
     id="path2"
     style="fill:#ffffff;fill-opacity:1;stroke-width:0.149998" />
</svg>
