<?xml version="1.0" encoding="UTF-8" standalone="no"?>
<svg
   xmlns:dc="http://purl.org/dc/elements/1.1/"
   xmlns:cc="http://creativecommons.org/ns#"
   xmlns:rdf="http://www.w3.org/1999/02/22-rdf-syntax-ns#"
   xmlns:svg="http://www.w3.org/2000/svg"
   xmlns="http://www.w3.org/2000/svg"
   xmlns:sodipodi="http://sodipodi.sourceforge.net/DTD/sodipodi-0.dtd"
   xmlns:inkscape="http://www.inkscape.org/namespaces/inkscape"
   viewBox="0 0 160 160"
   version="1.1"
   id="svg4"
   sodipodi:docname="microphone-lines-slash-solid.svg"
   width="160"
   height="160"
   inkscape:version="1.0.2-2 (e86c870879, 2021-01-15)">
  <metadata
     id="metadata10">
    <rdf:RDF>
      <cc:Work
         rdf:about="">
        <dc:format>image/svg+xml</dc:format>
        <dc:type
           rdf:resource="http://purl.org/dc/dcmitype/StillImage" />
        <dc:title></dc:title>
      </cc:Work>
    </rdf:RDF>
  </metadata>
  <defs
     id="defs8" />
  <sodipodi:namedview
     pagecolor="#ffffff"
     bordercolor="#666666"
     borderopacity="1"
     objecttolerance="10"
     gridtolerance="10"
     guidetolerance="10"
     inkscape:pageopacity="0"
     inkscape:pageshadow="2"
     inkscape:window-width="2560"
     inkscape:window-height="1417"
     id="namedview6"
     showgrid="false"
     inkscape:zoom="1.4355469"
     inkscape:cx="320"
     inkscape:cy="256"
     inkscape:window-x="-8"
     inkscape:window-y="-8"
     inkscape:window-maximized="1"
     inkscape:current-layer="svg4"
     inkscape:pagecheckerboard="true" />
  <!--!Font Awesome Free 6.5.2 by @fontawesome - https://fontawesome.com License - https://fontawesome.com/license/free Copyright 2024 Fonticons, Inc.-->
  <path
     d="M 9.7009939,17.275888 C 7.1010307,15.225917 3.3260841,15.70091 1.2761131,18.300873 c -2.049971,2.599963 -1.57497771,6.37491 1.0249855,8.424882 L 150.299,142.72411 c 2.59997,2.04997 6.37492,1.57498 8.42489,-1.02498 2.04997,-2.59997 1.57498,-6.37491 -1.02499,-8.42489 l -39.67444,-31.09955 c 3.79995,-6.49991 5.97492,-14.074803 5.97492,-22.174689 v -9.999858 c 0,-3.324953 -2.67496,-5.999916 -5.99992,-5.999916 -3.32495,0 -5.99991,2.674963 -5.99991,5.999916 v 5.999914 3.999944 c 0,5.299925 -1.27498,10.274855 -3.54995,14.674792 l -4.44993,-3.47495 V 80.000001 H 89.724862 l -8.624877,-6.749904 c 0.724989,-0.77499 1.749975,-1.249982 2.899959,-1.249982 H 103.99967 V 64.000227 H 83.999944 C 81.799974,64.000227 80,62.200253 80,60.000284 c 0,-2.199969 1.799974,-3.999943 3.999944,-3.999943 H 103.99967 V 48.000454 H 83.999944 C 81.799974,48.000454 80,46.200479 80,44.00051 c 0,-2.199969 1.799974,-3.999943 3.999944,-3.999943 H 103.99967 C 103.99967,26.750754 93.249812,16.000906 80,16.000906 c -13.249812,0 -23.99966,10.749848 -23.99966,23.999661 V 53.575375 Z M 89.549865,110.54957 c -3.024958,0.94999 -6.224912,1.44998 -9.549865,1.44998 -17.674751,0 -31.999548,-14.324798 -31.999548,-31.999549 V 77.825032 L 36.17562,68.500164 c -0.124999,0.474993 -0.174998,0.974986 -0.174998,1.499979 v 9.999858 c 0,22.274689 16.549766,40.674429 37.999462,43.599379 v 8.39989 h -11.99983 c -3.324952,0 -5.999914,2.67496 -5.999914,5.99991 0,3.32495 2.674962,5.99992 5.999914,5.99992 H 80 97.999746 c 3.324954,0 5.999924,-2.67497 5.999924,-5.99992 0,-3.32495 -2.67497,-5.99991 -5.999924,-5.99991 h -11.99983 v -8.39989 c 5.099927,-0.69998 9.924859,-2.27497 14.324794,-4.54994 l -10.774845,-8.47487 z"
     id="path2"
     style="stroke-width:0.249997;fill:#ffffff;fill-opacity:1" />
</svg>
