<?xml version="1.0" encoding="UTF-8" standalone="no"?>
<svg
   xmlns:dc="http://purl.org/dc/elements/1.1/"
   xmlns:cc="http://creativecommons.org/ns#"
   xmlns:rdf="http://www.w3.org/1999/02/22-rdf-syntax-ns#"
   xmlns:svg="http://www.w3.org/2000/svg"
   xmlns="http://www.w3.org/2000/svg"
   xmlns:sodipodi="http://sodipodi.sourceforge.net/DTD/sodipodi-0.dtd"
   xmlns:inkscape="http://www.inkscape.org/namespaces/inkscape"
   viewBox="0 0 160 160"
   version="1.1"
   id="svg4"
   sodipodi:docname="music-solid.svg"
   width="160"
   height="160"
   inkscape:export-filename="C:\Users\mathew.klucznyk.GUSS\Programming\GitProjects\UTSC_IC2\UI\Assets\VTPro Icons\music-solid-light.png"
   inkscape:export-xdpi="96"
   inkscape:export-ydpi="96"
   inkscape:version="1.0.2-2 (e86c870879, 2021-01-15)">
  <metadata
     id="metadata10">
    <rdf:RDF>
      <cc:Work
         rdf:about="">
        <dc:format>image/svg+xml</dc:format>
        <dc:type
           rdf:resource="http://purl.org/dc/dcmitype/StillImage" />
        <dc:title></dc:title>
      </cc:Work>
    </rdf:RDF>
  </metadata>
  <defs
     id="defs8" />
  <sodipodi:namedview
     pagecolor="#7d7d7d"
     bordercolor="#666666"
     borderopacity="1"
     objecttolerance="10"
     gridtolerance="10"
     guidetolerance="10"
     inkscape:pageopacity="0"
     inkscape:pageshadow="2"
     inkscape:window-width="1920"
     inkscape:window-height="1129"
     id="namedview6"
     showgrid="false"
     inkscape:zoom="0.50754247"
     inkscape:cx="132.5475"
     inkscape:cy="631.80476"
     inkscape:window-x="1040"
     inkscape:window-y="2152"
     inkscape:window-maximized="1"
     inkscape:current-layer="svg4" />
  <!--!Font Awesome Free 6.5.2 by @fontawesome - https://fontawesome.com License - https://fontawesome.com/license/free Copyright 2024 Fonticons, Inc.-->
  <path
     d="m 117.98036,40.992708 c 1.2655,0.937402 2.01542,2.437243 2.01542,4.015202 v 11.248813 41.245653 c 0,6.905514 -6.71805,12.498684 -14.99842,12.498684 -8.280374,0 -14.998418,-5.59317 -14.998418,-12.498684 0,-6.905532 6.718044,-12.498692 14.998418,-12.498692 1.74982,0 3.43714,0.249984 4.99947,0.718684 V 62.974765 L 70.00105,74.9735 v 32.52782 c 0,6.90552 -6.718037,12.49868 -14.998414,12.49868 -8.280376,0 -14.998418,-5.59316 -14.998418,-12.49868 0,-6.90553 6.718042,-12.498684 14.998418,-12.498684 1.749814,0 3.437137,0.249972 4.999472,0.718672 V 71.255144 60.006328 c 0,-2.202893 1.452972,-4.155812 3.562126,-4.79637 L 113.55896,40.211541 c 1.51546,-0.453078 3.15592,-0.171857 4.4214,0.781167 z"
     id="path2"
     style="fill:#ffffff;fill-opacity:1;stroke-width:0.156233" />
</svg>
