<?xml version="1.0" encoding="UTF-8" standalone="no"?>
<svg
   xmlns:dc="http://purl.org/dc/elements/1.1/"
   xmlns:cc="http://creativecommons.org/ns#"
   xmlns:rdf="http://www.w3.org/1999/02/22-rdf-syntax-ns#"
   xmlns:svg="http://www.w3.org/2000/svg"
   xmlns="http://www.w3.org/2000/svg"
   xmlns:sodipodi="http://sodipodi.sourceforge.net/DTD/sodipodi-0.dtd"
   xmlns:inkscape="http://www.inkscape.org/namespaces/inkscape"
   id="Layer_2"
   data-name="Layer 2"
   viewBox="0 0 160 160"
   version="1.1"
   sodipodi:docname="privacy-mute-solid.svg"
   width="160"
   height="160"
   inkscape:export-filename="C:\Users\mathew.klucznyk.GUSS\Programming\GitProjects\UTSC_IC2\UI\Assets\VTPro Icons\privacy-mute-solid.png"
   inkscape:export-xdpi="96"
   inkscape:export-ydpi="96"
   inkscape:version="1.0.2-2 (e86c870879, 2021-01-15)">
  <metadata
     id="metadata16">
    <rdf:RDF>
      <cc:Work
         rdf:about="">
        <dc:format>image/svg+xml</dc:format>
        <dc:type
           rdf:resource="http://purl.org/dc/dcmitype/StillImage" />
        <dc:title></dc:title>
      </cc:Work>
    </rdf:RDF>
  </metadata>
  <sodipodi:namedview
     pagecolor="#7d7d7d"
     bordercolor="#666666"
     borderopacity="1"
     objecttolerance="10"
     gridtolerance="10"
     guidetolerance="10"
     inkscape:pageopacity="0"
     inkscape:pageshadow="2"
     inkscape:window-width="2560"
     inkscape:window-height="1417"
     id="namedview14"
     showgrid="false"
     inkscape:zoom="1.0507505"
     inkscape:cx="-249.37585"
     inkscape:cy="388.75424"
     inkscape:window-x="-8"
     inkscape:window-y="-8"
     inkscape:window-maximized="1"
     inkscape:current-layer="Layer_2" />
  <defs
     id="defs4">
    <style
       id="style2">
      .cls-1 {
        fill: #fff;
        stroke-width: 0px;
      }
    </style>
  </defs>
  <g
     id="Layer_1-2"
     data-name="Layer 1"
     transform="matrix(0.21894327,0,0,0.21894327,31.999595,41.712858)">
    <path
       class="cls-1"
       d="M 410.2,346.05 C 277.48,239.64 142.19,136.09 9,30.17 8.75,29.98 8.53,29.76 8.32,29.53 4.02,24.84 -1.77,21.54 0.52,13.84 1.64,10.67 4.01,8.48 6.02,6.1 c 8.05,-9.28 14.89,-7.11 24.91,0.77 11.82,9.03 24.38,19.15 35.8,28.38 5.98,5.08 -12.6,-8.75 -16.16,-10.7 -0.5,-0.29 -0.28,-0.42 0.48,-0.65 4.92,-1.39 23.92,-1.3 34.56,-1.18 85.96,0.15 171.72,-0.08 257.74,0.04 25.31,-0.94 46.03,13.51 48.7,39.45 0.02,0.17 0.03,0.35 0.03,0.53 1.4,50.41 0.09,100.56 0.51,151.68 0.02,1.36 -0.3,2.43 -1.75,2.58 -4.57,0.11 -9.24,0.02 -13.89,0.05 -3.33,-0.11 -6.89,0.09 -10.46,0.05 -3.11,-0.04 -5.57,-2.43 -5.93,-5.52 v -0.05 c -0.27,-48.5 0.55,-96.8 -0.31,-145.25 0,-0.19 -0.01,-0.37 -0.03,-0.56 -0.35,-3.42 -1.53,-7.29 -4.12,-8.71 -3.73,-2.39 -10.58,-2.16 -15.19,-2.21 -78.35,-0.02 -156.68,0 -234.95,0 -3.46,-0.06 -6.34,0.21 -10.5,0.43 -0.51,0.04 -1.59,0.16 -1.62,0.65 0,0.25 0.26,0.57 0.68,0.94 75.31,59.5 150.51,118.4 226.25,177.16 5.15,3.88 12.03,5.81 18.48,5.94 22.57,0.65 45.18,0.76 67.81,0.07 11.85,-0.85 25.31,3.76 29,15.57 0.17,0.55 0.24,1.13 0.24,1.71 0,4.92 0.42,9.93 -0.19,14.81 -0.07,0.56 -0.23,1.1 -0.45,1.61 -4.83,11.13 -10.77,22.72 -14.48,31.1 -0.33,0.92 -0.08,1.82 0.46,2.66 4.55,6.14 9.49,11.91 13.68,18.06 11.6,17.03 -11.59,31.07 -24.76,20.67 l -0.34,-0.12 -0.02,-0.02 z M 391.42,289.1 c 3.66,-5.03 7.05,-10.3 10.67,-15.48 0.51,-1.07 -0.85,-0.64 -1.79,-0.73 -10.09,0.04 -20.14,-0.08 -30.25,0.04 -0.28,0.07 -0.18,0.27 0.18,0.55 7.78,5.77 13.6,10.37 20.95,15.66 z"
       id="path6" />
    <path
       class="cls-1"
       d="m 3.38,254.61 c 5.46,-11.21 14.69,-15.03 26.12,-14.67 63.49,1.82 127.75,-2.71 190.83,2.11 16.38,6.32 27.03,18.31 42.3,29.78 -2.67,0.32 -120.28,0 -184.47,0.11 -23.65,0.01 -40.11,-0.02 -41.01,0.02 1.96,8.44 7.21,15.41 14.44,18.93 4.97,2.64 12.18,3.69 18.1,3.55 57.54,0.26 115.06,-0.08 172.43,0 7.68,0.03 15.37,0.07 23.05,0.16 11.98,-0.09 24.49,-0.48 34.63,7 9.82,6.45 18.72,14.27 29.77,23.09 2.48,1.88 -3.49,1.27 -4.06,1.54 -85.51,0.79 -171.12,0.11 -256.66,0.27 -7.33,-0.11 -14.14,-1 -20.37,-2.66 C 25.49,317.62 11.49,301.67 3.92,278.48 3.41,276.74 2.99,275.73 3.1,273.89 3.15,268.04 2.83,260.23 3.29,254.86 L 3.4,254.62 H 3.38 Z"
       id="path8" />
    <path
       class="cls-1"
       d="m 46.08,217.07 c -0.24,-38.01 -1.17,-76.79 0.32,-115.02 9.98,6.9 18.83,14.41 27.52,21.18 2.03,1.48 3.17,3.96 3.26,6.45 -0.24,28.74 1.03,58.25 -0.35,87.38 -0.29,0.3 -0.75,0.43 -1.3,0.47 -9.9,-0.22 -19.56,0.53 -29.26,-0.27 z"
       id="path10" />
  </g>
</svg>
