<?xml version="1.0" encoding="UTF-8" standalone="no"?>
<svg
   xmlns:dc="http://purl.org/dc/elements/1.1/"
   xmlns:cc="http://creativecommons.org/ns#"
   xmlns:rdf="http://www.w3.org/1999/02/22-rdf-syntax-ns#"
   xmlns:svg="http://www.w3.org/2000/svg"
   xmlns="http://www.w3.org/2000/svg"
   xmlns:sodipodi="http://sodipodi.sourceforge.net/DTD/sodipodi-0.dtd"
   xmlns:inkscape="http://www.inkscape.org/namespaces/inkscape"
   id="SvgjsSvg1012"
   viewBox="0 0 160.00001 160"
   version="1.1"
   sodipodi:docname="Projector_Slashed_Icon.svg"
   width="160"
   height="160"
   inkscape:export-filename="C:\Users\mathew.klucznyk.GUSS\Programming\GitProjects\UTSC_IC2\UI\Assets\VTPro Icons\Projector_Slashed_Icon.png"
   inkscape:export-xdpi="96"
   inkscape:export-ydpi="96"
   inkscape:version="1.0.2-2 (e86c870879, 2021-01-15)">
  <metadata
     id="metadata18">
    <rdf:RDF>
      <cc:Work
         rdf:about="">
        <dc:format>image/svg+xml</dc:format>
        <dc:type
           rdf:resource="http://purl.org/dc/dcmitype/StillImage" />
        <dc:title></dc:title>
      </cc:Work>
    </rdf:RDF>
  </metadata>
  <sodipodi:namedview
     pagecolor="#ffffff"
     bordercolor="#666666"
     borderopacity="1"
     objecttolerance="10"
     gridtolerance="10"
     guidetolerance="10"
     inkscape:pageopacity="0"
     inkscape:pageshadow="2"
     inkscape:window-width="2560"
     inkscape:window-height="1417"
     id="namedview16"
     showgrid="false"
     inkscape:pagecheckerboard="true"
     inkscape:zoom="0.51107609"
     inkscape:cx="1126.6315"
     inkscape:cy="500.15017"
     inkscape:window-x="-8"
     inkscape:window-y="-8"
     inkscape:window-maximized="1"
     inkscape:current-layer="SvgjsSvg1012" />
  <defs
     id="defs4">
    <style
       id="style2">
      .cls-1 {
        stroke: #fff;
        stroke-linecap: round;
        stroke-miterlimit: 10;
        stroke-width: 30px;
      }

      .cls-1, .cls-2 {
        fill: #fff;
      }

      .cls-2 {
        stroke-width: 0px;
      }
    </style>
  </defs>
  <g
     id="g848"
     transform="matrix(0.32365735,0,0,0.32365735,32,38.858297)">
    <g
       id="SvgjsG1014">
      <path
         class="cls-2"
         d="M 264,74.92 H 245.34 C 219.28,45.46 174.27,42.71 144.81,68.77 c -2.17,1.92 -4.23,3.98 -6.15,6.15 H 24 c -13.25,0 -24,10.75 -24,24 v 72 c 0,13.25 10.75,24 24,24 h 240 c 13.25,0 24,-10.75 24,-24 v -72 c 0,-13.25 -10.75,-24 -24,-24 z m -228,48 c -6.63,0 -12,-5.37 -12,-12 0,-6.63 5.37,-12 12,-12 6.63,0 12,5.37 12,12 0,6.63 -5.37,12 -12,12 z m 156,48 c -21.34,0 -35.36,-15.49 -36.55,-16.89 -2.31,-2.71 -11.93,-14.61 -11.45,-31.11 0.64,-22.05 19.18,-48 48,-48 26.51,0 48,21.49 48,48 0,26.51 -21.49,48 -48,48 z"
         id="path6" />
    </g>
    <line
       class="cls-1"
       x1="281.60999"
       y1="15"
       x2="235.67"
       y2="67.849998"
       id="line9" />
    <line
       class="cls-1"
       x1="210.09"
       y1="100.16"
       x2="172.03"
       y2="143.92999"
       id="line11" />
    <line
       class="cls-1"
       x1="136.60001"
       y1="186.38"
       x2="90.660004"
       y2="239.23"
       id="line13" />
  </g>
</svg>
