<?xml version="1.0" encoding="UTF-8" standalone="no"?>
<svg
   xmlns:dc="http://purl.org/dc/elements/1.1/"
   xmlns:cc="http://creativecommons.org/ns#"
   xmlns:rdf="http://www.w3.org/1999/02/22-rdf-syntax-ns#"
   xmlns:svg="http://www.w3.org/2000/svg"
   xmlns="http://www.w3.org/2000/svg"
   xmlns:sodipodi="http://sodipodi.sourceforge.net/DTD/sodipodi-0.dtd"
   xmlns:inkscape="http://www.inkscape.org/namespaces/inkscape"
   viewBox="0 0 160 160"
   version="1.1"
   id="svg4"
   sodipodi:docname="snowflake-solid.svg"
   width="160"
   height="160"
   inkscape:version="1.0.2-2 (e86c870879, 2021-01-15)">
  <metadata
     id="metadata10">
    <rdf:RDF>
      <cc:Work
         rdf:about="">
        <dc:format>image/svg+xml</dc:format>
        <dc:type
           rdf:resource="http://purl.org/dc/dcmitype/StillImage" />
        <dc:title></dc:title>
      </cc:Work>
    </rdf:RDF>
  </metadata>
  <defs
     id="defs8" />
  <sodipodi:namedview
     pagecolor="#ffffff"
     bordercolor="#666666"
     borderopacity="1"
     objecttolerance="10"
     gridtolerance="10"
     guidetolerance="10"
     inkscape:pageopacity="0"
     inkscape:pageshadow="2"
     inkscape:window-width="2560"
     inkscape:window-height="1417"
     id="namedview6"
     showgrid="false"
     inkscape:zoom="2.0301699"
     inkscape:cx="53.528041"
     inkscape:cy="174.31538"
     inkscape:window-x="-8"
     inkscape:window-y="-8"
     inkscape:window-maximized="1"
     inkscape:current-layer="svg4"
     inkscape:pagecheckerboard="true" />
  <!--!Font Awesome Free 6.5.2 by @fontawesome - https://fontawesome.com License - https://fontawesome.com/license/free Copyright 2024 Fonticons, Inc.-->
  <path
     d="m 80.012171,0 c 5.53125,0 10,4.46875 10,10 v 9.40625 l 4.6875,-4.6875 c 2.9375,-2.9375 7.687499,-2.9375 10.593749,0 2.90625,2.9375 2.9375,7.6875 0,10.59375 L 89.980921,40.625 V 62.59375 L 109.16842,51.40625 114.69967,30.75 c 1.0625,-4 5.1875,-6.375 9.1875,-5.3125 4,1.0625 6.375,5.1875 5.3125,9.1875 l -1.625,6.03125 7.375,-4.3125 c 4.78125,-2.78125 10.90625,-1.15625 13.6875,3.59375 2.78125,4.75 1.1875,10.90625 -3.59375,13.6875 l -7.90625,4.625 6.78125,1.8125 c 4,1.0625 6.375,5.1875 5.3125,9.1875 -1.0625,4 -5.1875,6.375 -9.1875,5.3125 L 118.88717,68.90625 99.855921,80 118.88717,91.09375 140.04342,85.4375 c 4,-1.0625 8.125,1.3125 9.1875,5.3125 1.0625,4 -1.3125,8.125 -5.3125,9.1875 l -6.78125,1.8125 7.90625,4.625 c 4.78125,2.78125 6.375,8.90625 3.59375,13.6875 -2.78125,4.78125 -8.90625,6.375 -13.6875,3.59375 l -7.375,-4.3125 1.625,6.03125 c 1.0625,4 -1.3125,8.125 -5.3125,9.1875 -4,1.0625 -8.125,-1.3125 -9.1875,-5.3125 L 109.16842,108.59375 90.012171,97.40625 V 119.375 l 15.312499,15.3125 c 2.9375,2.9375 2.9375,7.6875 0,10.59375 -2.9375,2.90625 -7.687499,2.9375 -10.593749,0 l -4.6875,-4.6875 V 150 c 0,5.53125 -4.46875,10 -10,10 -5.53125,0 -10,-4.46875 -10,-10 v -9.40625 l -4.6875,4.6875 c -2.9375,2.9375 -7.6875,2.9375 -10.59375,0 -2.90625,-2.9375 -2.9375,-7.6875 0,-10.59375 l 15.3125,-15.3125 V 97.40625 l -19.1875,11.1875 -5.53125,20.65625 c -1.0625,4 -5.1875,6.375 -9.1875,5.3125 -4,-1.0625 -6.375,-5.1875 -5.3125,-9.1875 l 1.625,-6.03125 -7.4375,4.28125 c -4.78125,2.78125 -10.90625,1.15625 -13.6875,-3.59375 -2.7812502,-4.75 -1.15625,-10.90625 3.59375,-13.6875 l 7.90625,-4.625 -6.78125,-1.8125 c -4,-1.0625 -6.3750003,-5.1875 -5.3125,-9.1875 1.0625,-4 5.1875,-6.375 9.1875,-5.3125 L 41.105921,91.0625 60.168421,80 41.137171,68.90625 19.980921,74.5625 c -4,1.0625 -8.125,-1.3125 -9.1875,-5.3125 -1.0625003,-4 1.3125,-8.125 5.3125,-9.1875 l 6.78125,-1.8125 -7.90625,-4.625 c -4.78125,-2.78125 -6.3750002,-8.90625 -3.59375,-13.65625 2.78125,-4.75 8.90625,-6.375 13.6875,-3.59375 l 7.375,4.3125 -1.625,-6.03125 c -1.0625,-4 1.3125,-8.125 5.3125,-9.1875 4,-1.0625 8.125,1.3125 9.1875,5.3125 l 5.53125,20.65625 19.15625,11.15625 v -22 L 54.699671,25.3125 c -2.9375,-2.9375 -2.9375,-7.6875 0,-10.59375 2.9375,-2.90625 7.6875,-2.9375 10.59375,0 l 4.6875,4.6875 V 10 c 0,-5.53125 4.46875,-10 10,-10 z"
     id="path2"
     style="stroke-width:0.3125;fill:#ffffff;fill-opacity:1" />
</svg>
