<?xml version="1.0" encoding="UTF-8" standalone="no"?>
<svg
   xmlns:dc="http://purl.org/dc/elements/1.1/"
   xmlns:cc="http://creativecommons.org/ns#"
   xmlns:rdf="http://www.w3.org/1999/02/22-rdf-syntax-ns#"
   xmlns:svg="http://www.w3.org/2000/svg"
   xmlns="http://www.w3.org/2000/svg"
   xmlns:sodipodi="http://sodipodi.sourceforge.net/DTD/sodipodi-0.dtd"
   xmlns:inkscape="http://www.inkscape.org/namespaces/inkscape"
   viewBox="0 0 160 160"
   version="1.1"
   id="svg4"
   sodipodi:docname="snowflake-solid.svg"
   width="160"
   height="160"
   inkscape:version="1.0.2-2 (e86c870879, 2021-01-15)"
   inkscape:export-filename="C:\Users\mathew.klucznyk.GUSS\Programming\GitProjects\UTSC_IC2\UI\Assets\VTPro Icons\snowflake-solid.png"
   inkscape:export-xdpi="96"
   inkscape:export-ydpi="96">
  <metadata
     id="metadata10">
    <rdf:RDF>
      <cc:Work
         rdf:about="">
        <dc:format>image/svg+xml</dc:format>
        <dc:type
           rdf:resource="http://purl.org/dc/dcmitype/StillImage" />
        <dc:title></dc:title>
      </cc:Work>
    </rdf:RDF>
  </metadata>
  <defs
     id="defs8" />
  <sodipodi:namedview
     pagecolor="#ffffff"
     bordercolor="#666666"
     borderopacity="1"
     objecttolerance="10"
     gridtolerance="10"
     guidetolerance="10"
     inkscape:pageopacity="0"
     inkscape:pageshadow="2"
     inkscape:window-width="2560"
     inkscape:window-height="1417"
     id="namedview6"
     showgrid="false"
     inkscape:zoom="2.0301699"
     inkscape:cx="53.528041"
     inkscape:cy="174.31538"
     inkscape:window-x="-8"
     inkscape:window-y="-8"
     inkscape:window-maximized="1"
     inkscape:current-layer="svg4"
     inkscape:pagecheckerboard="true" />
  <!--!Font Awesome Free 6.5.2 by @fontawesome - https://fontawesome.com License - https://fontawesome.com/license/free Copyright 2024 Fonticons, Inc.-->
  <path
     d="m 80.007303,32 c 3.31875,0 6,2.68125 6,6 v 5.64375 l 2.8125,-2.8125 c 1.7625,-1.7625 4.612499,-1.7625 6.356249,0 1.74375,1.7625 1.7625,4.6125 0,6.35625 L 85.988553,56.375 V 69.55625 L 97.501052,62.84375 100.8198,50.45 c 0.6375,-2.4 3.1125,-3.825 5.5125,-3.1875 2.4,0.6375 3.825,3.1125 3.1875,5.5125 l -0.975,3.61875 4.425,-2.5875 c 2.86875,-1.66875 6.54375,-0.69375 8.2125,2.15625 1.66875,2.85 0.7125,6.54375 -2.15625,8.2125 l -4.74375,2.775 4.06875,1.0875 c 2.4,0.6375 3.825,3.1125 3.1875,5.5125 -0.6375,2.4 -3.1125,3.825 -5.5125,3.1875 L 103.3323,73.34375 91.913553,80 103.3323,86.65625 116.02605,83.2625 c 2.4,-0.6375 4.875,0.7875 5.5125,3.1875 0.6375,2.4 -0.7875,4.875 -3.1875,5.5125 l -4.06875,1.0875 4.74375,2.775 c 2.86875,1.66875 3.825,5.34375 2.15625,8.2125 -1.66875,2.86875 -5.34375,3.825 -8.2125,2.15625 l -4.425,-2.5875 0.975,3.61875 c 0.6375,2.4 -0.7875,4.875 -3.1875,5.5125 -2.4,0.6375 -4.875,-0.7875 -5.5125,-3.1875 L 97.501052,97.15625 86.007303,90.44375 V 103.625 l 9.187499,9.1875 c 1.7625,1.7625 1.7625,4.6125 0,6.35625 -1.7625,1.74375 -4.612499,1.7625 -6.356249,0 l -2.8125,-2.8125 V 122 c 0,3.31875 -2.68125,6 -6,6 -3.31875,0 -6,-2.68125 -6,-6 v -5.64375 l -2.8125,2.8125 c -1.7625,1.7625 -4.6125,1.7625 -6.35625,0 -1.74375,-1.7625 -1.7625,-4.6125 0,-6.35625 l 9.1875,-9.1875 V 90.44375 l -11.5125,6.7125 -3.31875,12.39375 c -0.6375,2.4 -3.1125,3.825 -5.5125,3.1875 -2.4,-0.6375 -3.825,-3.1125 -3.1875,-5.5125 l 0.975,-3.61875 -4.4625,2.56875 c -2.86875,1.66875 -6.54375,0.69375 -8.2125,-2.15625 -1.66875,-2.85 -0.69375,-6.54375 2.15625,-8.2125 l 4.74375,-2.775 -4.06875,-1.0875 c -2.4,-0.6375 -3.825,-3.1125 -3.1875,-5.5125 0.6375,-2.4 3.1125,-3.825 5.5125,-3.1875 L 56.663553,86.6375 68.101053,80 56.682303,73.34375 43.988553,76.7375 c -2.4,0.6375 -4.875,-0.7875 -5.5125,-3.1875 -0.6375,-2.4 0.7875,-4.875 3.1875,-5.5125 l 4.06875,-1.0875 -4.74375,-2.775 c -2.86875,-1.66875 -3.825,-5.34375 -2.15625,-8.19375 1.66875,-2.85 5.34375,-3.825 8.2125,-2.15625 l 4.425,2.5875 -0.975,-3.61875 c -0.6375,-2.4 0.7875,-4.875 3.1875,-5.5125 2.4,-0.6375 4.875,0.7875 5.5125,3.1875 l 3.31875,12.39375 11.49375,6.69375 v -13.2 l -9.1875,-9.16875 c -1.7625,-1.7625 -1.7625,-4.6125 0,-6.35625 1.7625,-1.74375 4.6125,-1.7625 6.35625,0 l 2.8125,2.8125 V 38 c 0,-3.31875 2.68125,-6 6,-6 z"
     id="path2"
     style="fill:#ffffff;fill-opacity:1;stroke-width:0.1875" />
</svg>
