<?xml version="1.0" encoding="UTF-8" standalone="no"?>
<svg
   xmlns:dc="http://purl.org/dc/elements/1.1/"
   xmlns:cc="http://creativecommons.org/ns#"
   xmlns:rdf="http://www.w3.org/1999/02/22-rdf-syntax-ns#"
   xmlns:svg="http://www.w3.org/2000/svg"
   xmlns="http://www.w3.org/2000/svg"
   xmlns:sodipodi="http://sodipodi.sourceforge.net/DTD/sodipodi-0.dtd"
   xmlns:inkscape="http://www.inkscape.org/namespaces/inkscape"
   viewBox="0 0 160 160"
   version="1.1"
   id="svg4"
   sodipodi:docname="usb.svg"
   width="160"
   height="160"
   inkscape:export-filename="C:\Users\mathew.klucznyk.GUSS\Programming\GitProjects\UTSC_IC2\UI\Assets\usb.png"
   inkscape:export-xdpi="96"
   inkscape:export-ydpi="96"
   inkscape:version="1.0.2-2 (e86c870879, 2021-01-15)">
  <metadata
     id="metadata10">
    <rdf:RDF>
      <cc:Work
         rdf:about="">
        <dc:format>image/svg+xml</dc:format>
        <dc:type
           rdf:resource="http://purl.org/dc/dcmitype/StillImage" />
        <dc:title></dc:title>
      </cc:Work>
    </rdf:RDF>
  </metadata>
  <defs
     id="defs8" />
  <sodipodi:namedview
     pagecolor="#ffffff"
     bordercolor="#666666"
     borderopacity="1"
     objecttolerance="10"
     gridtolerance="10"
     guidetolerance="10"
     inkscape:pageopacity="0"
     inkscape:pageshadow="2"
     inkscape:window-width="2560"
     inkscape:window-height="1417"
     id="namedview6"
     showgrid="false"
     inkscape:pagecheckerboard="true"
     inkscape:zoom="0.50754247"
     inkscape:cx="606.16861"
     inkscape:cy="567.11126"
     inkscape:window-x="-8"
     inkscape:window-y="-8"
     inkscape:window-maximized="1"
     inkscape:current-layer="svg4" />
  <!--!Font Awesome Free 6.5.2 by @fontawesome - https://fontawesome.com License - https://fontawesome.com/license/free Copyright 2024 Fonticons, Inc.-->
  <path
     d="m 128,79.992516 c 0,0.463914 -0.25441,0.912864 -0.67342,1.122372 l -13.33375,8.006232 c -0.20951,0.119724 -0.41902,0.209514 -0.67342,0.209514 -0.20951,0 -0.46391,-0.04488 -0.67342,-0.164616 -0.41902,-0.254406 -0.67342,-0.673422 -0.67342,-1.167264 V 82.67124 H 76.251286 c 3.786126,5.92611 6.060795,15.997509 10.415589,15.997509 h 3.995635 v -4.010598 c 0,-0.748248 0.583632,-1.33188 1.331878,-1.33188 h 13.333752 c 0.74824,0 1.33188,0.583632 1.33188,1.33188 V 107.9919 c 0,0.74824 -0.58364,1.33188 -1.33188,1.33188 H 91.994388 c -0.748246,0 -1.331878,-0.58364 -1.331878,-1.33188 v -3.99564 h -3.995635 c -11.283555,0 -12.136555,-21.32502 -18.661263,-21.32502 H 52.995791 C 51.783632,87.250506 47.623383,90.677478 42.669992,90.677478 36.788776,90.662508 32,85.873734 32,79.992516 c 0,-5.881214 4.788776,-10.66999 10.669992,-10.66999 4.953391,0 9.128605,3.412003 10.325799,8.006236 5.851286,0 6.569603,1.42167 11.163835,-9.038816 6.000935,-13.333749 8.694622,-12.286205 16.296804,-12.286205 1.12237,-3.127669 4.04053,-5.327513 7.542323,-5.327513 4.414653,0 8.006235,3.576617 8.006235,8.006236 0,4.429617 -3.576618,8.006235 -8.006235,8.006235 -3.501793,0 -6.419953,-2.214809 -7.542323,-5.327514 h -4.459548 c -4.354793,0 -6.629462,10.08636 -10.415588,15.997505 h 46.406236 v -5.327513 c 0,-0.493842 0.2544,-0.91286 0.67342,-1.167264 0.41902,-0.254403 0.95776,-0.209509 1.33188,0.04489 l 13.33375,8.006237 C 127.74559,79.079658 128,79.528608 128,79.992516 Z"
     id="path2"
     style="fill:#ffffff;fill-opacity:1;stroke-width:0.149649" />
</svg>
