<?xml version="1.0" encoding="UTF-8"?>
<svg id="Layer_2" data-name="Layer 2" xmlns="http://www.w3.org/2000/svg" viewBox="0 0 441 332">
  <defs>
    <style>
      .cls-1 {
        fill: #000;
      }

      .cls-1, .cls-2 {
        stroke-width: 0px;
      }

      .cls-2 {
        fill: #fff;
      }
    </style>
  </defs>
  <g id="Layer_1-2" data-name="Layer 1">
    <g>
      <path class="cls-2" d="M0,332C0,221.33,0,110.67,0,0c147,0,294,0,441,0,0,110.67,0,221.33,0,332-147,0-294,0-441,0ZM161.3,126.98c-13.3-10.09-25.98-19.78-38.74-29.36-5.35-4.02-11.5-3.42-14.64,1.17-3.1,4.52-1.51,9.77,3.91,13.66,10.54,7.56,21.06,15.15,31.5,22.86,15.98,11.81,31.9,23.71,47.82,35.6,25.4,18.95,50.81,37.88,76.15,56.91,14.18,10.65,28.13,21.61,42.33,32.24,9.91,7.42,19.93,14.71,30.14,21.7,5.95,4.07,10.34,3.4,13.43-1.1,2.97-4.32,1.86-9.18-3.44-13.27-11.54-8.89-23.17-17.68-34.83-26.42-5.12-3.84-10.41-7.46-14.93-10.67,5.32-10.53,11.69-19.68,14.68-29.82,5.27-17.87,4.56-35.64-3.5-53.44-10.62-23.43-27.41-39.28-51.52-47.04-35.52-11.42-66.72-3.6-93.24,22.73-1.5,1.49-3.26,2.71-5.11,4.24ZM303.46,280.48c-.15-.78-.31-1.57-.46-2.35-17.34-12.96-34.75-25.81-51.95-38.96-3.46-2.65-6.59-3.23-10.83-2.63-21.51,3.04-40.18-3.52-55.58-18.51-9.5-9.25-14.11-21.19-15.51-34.41-.29-2.76-.88-6.39-2.73-7.93-6.31-5.23-13.24-9.7-20.43-14.81-3.34,17.42-1.47,33.75,4.86,49.73,6.41,16.2,19.14,26.94,32.82,37.57-6.93,4.84-13.03,9.54-19.56,13.55-6.45,3.96-9.11,8.25-7.58,14.3,1.31,5.2,5.7,8.33,12.76,8.34,41.08.08,82.16.14,123.24-.13,3.66-.02,7.3-2.45,10.95-3.76ZM231.71,224.69c-16.86-12.69-32.49-24.46-48.7-36.67,1.94,17.94,23.79,38.06,48.7,36.67Z"/>
      <path class="cls-1" d="M161.3,126.98c1.85-1.52,3.61-2.75,5.11-4.24,26.52-26.33,57.73-34.15,93.24-22.73,24.12,7.75,40.9,23.6,51.52,47.04,8.07,17.8,8.77,35.57,3.5,53.44-2.99,10.14-9.36,19.28-14.68,29.82,4.51,3.22,9.8,6.83,14.93,10.67,11.66,8.74,23.29,17.52,34.83,26.42,5.3,4.08,6.41,8.95,3.44,13.27-3.09,4.5-7.49,5.18-13.43,1.1-10.21-6.99-20.23-14.28-30.14-21.7-14.2-10.63-28.15-21.59-42.33-32.24-25.33-19.04-50.75-37.96-76.15-56.91-15.92-11.89-31.84-23.79-47.82-35.6-10.43-7.71-20.96-15.29-31.5-22.86-5.42-3.89-7-9.13-3.91-13.66,3.14-4.59,9.29-5.19,14.64-1.17,12.76,9.58,25.44,19.27,38.74,29.36ZM191.73,148.9c18.11-21.37,48.99-24.93,72.3-6.33,6.21,4.96,10.84,13.22,13.6,20.91,5.61,15.62,1.97,30.64-7.66,44.23,3.36,2.65,6.22,4.92,9.04,7.15,23.39-26.44,18.28-63.1-10.55-84.19-29.52-21.59-66.73-13.96-87.26,11.4,3.45,2.24,6.86,4.45,10.54,6.84ZM216.26,167.08c-.07-.61-.14-1.22-.21-1.83,5.03-1.69,10.23-3.02,15.01-5.23,2.25-1.04,5.09-3.77,5.12-5.78.03-2.01-2.78-5.3-4.92-5.88-7.32-1.97-21.12,5.02-25.24,12.4,3.4,2.1,6.81,4.21,10.23,6.33Z"/>
      <path class="cls-1" d="M303.46,280.48c-3.65,1.31-7.29,3.74-10.95,3.76-41.08.27-82.16.21-123.24.13-7.06-.01-11.45-3.15-12.76-8.34-1.52-6.05,1.14-10.34,7.58-14.3,6.53-4.01,12.64-8.71,19.56-13.55-13.68-10.62-26.41-21.37-32.82-37.57-6.33-15.99-8.2-32.31-4.86-49.73,7.19,5.11,14.12,9.58,20.43,14.81,1.85,1.54,2.44,5.17,2.73,7.93,1.4,13.22,6.01,25.16,15.51,34.41,15.4,14.99,34.07,21.55,55.58,18.51,4.24-.6,7.37-.01,10.83,2.63,17.19,13.14,34.61,26,51.95,38.96.15.78.31,1.57.46,2.35Z"/>
      <path class="cls-1" d="M231.71,224.69c-24.92,1.4-46.77-18.73-48.7-36.67,16.22,12.21,31.85,23.98,48.7,36.67Z"/>
      <path class="cls-2" d="M191.73,148.9c-3.68-2.39-7.08-4.6-10.54-6.84,20.53-25.36,57.75-32.98,87.26-11.4,28.83,21.09,33.94,57.75,10.55,84.19-2.82-2.23-5.68-4.49-9.04-7.15,9.64-13.59,13.27-28.61,7.66-44.23-2.76-7.68-7.39-15.95-13.6-20.91-23.31-18.6-54.2-15.04-72.3,6.33Z"/>
      <path class="cls-2" d="M216.26,167.08c-3.42-2.11-6.84-4.23-10.23-6.33,4.12-7.38,17.91-14.37,25.24-12.4,2.14.58,4.95,3.87,4.92,5.88-.03,2.01-2.88,4.74-5.12,5.78-4.78,2.22-9.98,3.54-15.01,5.23.07.61.14,1.22.21,1.83Z"/>
    </g>
  </g>
</svg>