<?xml version="1.0" encoding="UTF-8"?>
<svg id="Layer_2" data-name="Layer 2" xmlns="http://www.w3.org/2000/svg" viewBox="0 0 438.47 349.75">
  <defs>
    <style>
      .cls-1 {
        fill: #fff;
        stroke-width: 0px;
      }
    </style>
  </defs>
  <g id="Layer_1-2" data-name="Layer 1">
    <path class="cls-1" d="M410.2,346.05C277.48,239.64,142.19,136.09,9,30.17c-.25-.19-.47-.41-.68-.64C4.02,24.84-1.77,21.54.52,13.84c1.12-3.17,3.49-5.36,5.5-7.74,8.05-9.28,14.89-7.11,24.91.77,11.82,9.03,24.38,19.15,35.8,28.38,5.98,5.08-12.6-8.75-16.16-10.7-.5-.29-.28-.42.48-.65,4.92-1.39,23.92-1.3,34.56-1.18,85.96.15,171.72-.08,257.74.04,25.31-.94,46.03,13.51,48.7,39.45.02.17.03.35.03.53,1.4,50.41.09,100.56.51,151.68.02,1.36-.3,2.43-1.75,2.58-4.57.11-9.24.02-13.89.05-3.33-.11-6.89.09-10.46.05-3.11-.04-5.57-2.43-5.93-5.52v-.05c-.27-48.5.55-96.8-.31-145.25,0-.19-.01-.37-.03-.56-.35-3.42-1.53-7.29-4.12-8.71-3.73-2.39-10.58-2.16-15.19-2.21-78.35-.02-156.68,0-234.95,0-3.46-.06-6.34.21-10.5.43-.51.04-1.59.16-1.62.65,0,.25.26.57.68.94,75.31,59.5,150.51,118.4,226.25,177.16,5.15,3.88,12.03,5.81,18.48,5.94,22.57.65,45.18.76,67.81.07,11.85-.85,25.31,3.76,29,15.57.17.55.24,1.13.24,1.71,0,4.92.42,9.93-.19,14.81-.07.56-.23,1.1-.45,1.61-4.83,11.13-10.77,22.72-14.48,31.1-.33.92-.08,1.82.46,2.66,4.55,6.14,9.49,11.91,13.68,18.06,11.6,17.03-11.59,31.07-24.76,20.67l-.34-.12-.02-.02ZM391.42,289.1c3.66-5.03,7.05-10.3,10.67-15.48.51-1.07-.85-.64-1.79-.73-10.09.04-20.14-.08-30.25.04-.28.07-.18.27.18.55,7.78,5.77,13.6,10.37,20.95,15.66l.24-.04h0Z"/>
    <path class="cls-1" d="M3.38,254.61c5.46-11.21,14.69-15.03,26.12-14.67,63.49,1.82,127.75-2.71,190.83,2.11,16.38,6.32,27.03,18.31,42.3,29.78-2.67.32-120.28,0-184.47.11-23.65.01-40.11-.02-41.01.02,1.96,8.44,7.21,15.41,14.44,18.93,4.97,2.64,12.18,3.69,18.1,3.55,57.54.26,115.06-.08,172.43,0,7.68.03,15.37.07,23.05.16,11.98-.09,24.49-.48,34.63,7,9.82,6.45,18.72,14.27,29.77,23.09,2.48,1.88-3.49,1.27-4.06,1.54-85.51.79-171.12.11-256.66.27-7.33-.11-14.14-1-20.37-2.66-22.99-6.22-36.99-22.17-44.56-45.36-.51-1.74-.93-2.75-.82-4.59.05-5.85-.27-13.66.19-19.03l.11-.24h-.02Z"/>
    <path class="cls-1" d="M46.08,217.07c-.24-38.01-1.17-76.79.32-115.02,9.98,6.9,18.83,14.41,27.52,21.18,2.03,1.48,3.17,3.96,3.26,6.45-.24,28.74,1.03,58.25-.35,87.38-.29.3-.75.43-1.3.47-9.9-.22-19.56.53-29.26-.27l-.19-.19h0Z"/>
  </g>
</svg>