<?xml version="1.0" encoding="UTF-8"?>
<svg id="SvgjsSvg1012" xmlns="http://www.w3.org/2000/svg" viewBox="0 0 296.61 254.23">
  <defs>
    <style>
      .cls-1 {
        stroke: #fff;
        stroke-linecap: round;
        stroke-miterlimit: 10;
        stroke-width: 30px;
      }

      .cls-1, .cls-2 {
        fill: #fff;
      }

      .cls-2 {
        stroke-width: 0px;
      }
    </style>
  </defs>
  <g id="SvgjsG1014">
    <path class="cls-2" d="M264,74.92h-18.66c-26.06-29.46-71.07-32.21-100.53-6.15-2.17,1.92-4.23,3.98-6.15,6.15H24c-13.25,0-24,10.75-24,24v72c0,13.25,10.75,24,24,24h240c13.25,0,24-10.75,24-24v-72c0-13.25-10.75-24-24-24ZM36,122.92c-6.63,0-12-5.37-12-12s5.37-12,12-12,12,5.37,12,12-5.37,12-12,12ZM192,170.92c-21.34,0-35.36-15.49-36.55-16.89-2.31-2.71-11.93-14.61-11.45-31.11.64-22.05,19.18-48,48-48,26.51,0,48,21.49,48,48s-21.49,48-48,48Z"/>
  </g>
  <line class="cls-1" x1="281.61" y1="15" x2="235.67" y2="67.85"/>
  <line class="cls-1" x1="210.09" y1="100.16" x2="172.03" y2="143.93"/>
  <line class="cls-1" x1="136.6" y1="186.38" x2="90.66" y2="239.23"/>
</svg>