<?xml version="1.0" encoding="UTF-8" standalone="no"?>
<svg
   xmlns:dc="http://purl.org/dc/elements/1.1/"
   xmlns:cc="http://creativecommons.org/ns#"
   xmlns:rdf="http://www.w3.org/1999/02/22-rdf-syntax-ns#"
   xmlns:svg="http://www.w3.org/2000/svg"
   xmlns="http://www.w3.org/2000/svg"
   xmlns:sodipodi="http://sodipodi.sourceforge.net/DTD/sodipodi-0.dtd"
   xmlns:inkscape="http://www.inkscape.org/namespaces/inkscape"
   viewBox="0 0 150 150"
   version="1.1"
   id="svg4"
   sodipodi:docname="delete-left-solid.svg"
   inkscape:version="1.0.2-2 (e86c870879, 2021-01-15)"
   width="150"
   height="150"
   inkscape:export-filename="C:\Users\mathew.klucznyk.GUSS\Programming\GitProjects\UTSC_IC2\UI\Assets\delete-left-solid dark.png"
   inkscape:export-xdpi="96"
   inkscape:export-ydpi="96">
  <metadata
     id="metadata10">
    <rdf:RDF>
      <cc:Work
         rdf:about="">
        <dc:format>image/svg+xml</dc:format>
        <dc:type
           rdf:resource="http://purl.org/dc/dcmitype/StillImage" />
        <dc:title></dc:title>
      </cc:Work>
    </rdf:RDF>
  </metadata>
  <defs
     id="defs8" />
  <sodipodi:namedview
     pagecolor="#ffd2ff"
     bordercolor="#666666"
     borderopacity="1"
     objecttolerance="10"
     gridtolerance="10"
     guidetolerance="10"
     inkscape:pageopacity="0"
     inkscape:pageshadow="2"
     inkscape:window-width="1920"
     inkscape:window-height="1129"
     id="namedview6"
     showgrid="false"
     inkscape:zoom="1.4355469"
     inkscape:cx="313.11949"
     inkscape:cy="229.25503"
     inkscape:window-x="1040"
     inkscape:window-y="2152"
     inkscape:window-maximized="1"
     inkscape:current-layer="svg4" />
  <!--!Font Awesome Free 6.5.2 by @fontawesome - https://fontawesome.com License - https://fontawesome.com/license/free Copyright 2024 Fonticons, Inc.-->
  <path
     d="m 417.66122,203.43537 c 0,-5.88333 -4.78334,-10.66666 -10.66667,-10.66666 h -51.11666 c -2.83333,0 -5.55,1.11666 -7.55,3.11666 l -25.1,25.11667 c -1,1 -1.56667,2.35 -1.56667,3.76667 0,1.41666 0.56667,2.76666 1.56667,3.76666 l 25.1,25.11668 c 2,2 4.71667,3.11666 7.55,3.11666 h 51.11666 c 5.88333,0 10.66667,-4.78334 10.66667,-10.66667 z m -50.83333,7.83334 c 1.56667,-1.56667 4.1,-1.56667 5.65,0 l 7.83333,7.83333 7.83334,-7.83333 c 1.56666,-1.56667 4.1,-1.56667 5.65,0 1.55,1.56666 1.56666,4.1 0,5.65 l -7.83334,7.83333 7.83334,7.83333 c 1.56666,1.56667 1.56666,4.1 0,5.65001 -1.56666,1.54999 -4.1,1.56666 -5.65,0 l -7.83334,-7.83334 -7.83333,7.83334 c -1.56667,1.56666 -4.1,1.56666 -5.65,0 -1.55,-1.56667 -1.56667,-4.1 0,-5.65001 l 7.83333,-7.83333 -7.83333,-7.83333 c -1.56667,-1.56667 -1.56667,-4.1 0,-5.65 z"
     id="path2"
     style="fill:#ffffff;fill-opacity:1;stroke-width:0.166667"
     inkscape:export-xdpi="96.769997"
     inkscape:export-ydpi="96.769997" />
  <path
     d="m 123,53.666669 c 0,-5.883332 -4.78334,-10.666666 -10.66667,-10.666666 H 61.21667 c -2.83333,0 -5.55,1.116666 -7.55,3.116666 l -25.1,25.11667 c -1,1 -1.56667,2.349999 -1.56667,3.766664 0,1.416664 0.56667,2.766664 1.56667,3.766664 l 25.1,25.116673 c 2,2 4.71667,3.11666 7.55,3.11666 h 51.11666 C 118.21666,107 123,102.21666 123,96.333328 Z m -50.83333,7.833334 c 1.56666,-1.566666 4.1,-1.566666 5.65,0 l 7.83333,7.833336 7.83333,-7.833336 c 1.56667,-1.566666 4.10001,-1.566666 5.65001,0 1.55,1.566666 1.56666,4.1 0,5.65 L 91.3,74.983339 l 7.83334,7.83333 c 1.56666,1.56667 1.56666,4.1 0,5.65001 -1.56667,1.54999 -4.1,1.56665 -5.65001,0 L 85.65,80.633339 77.81667,88.466678 c -1.56667,1.56665 -4.1,1.56665 -5.65,0 -1.55,-1.56668 -1.56667,-4.099999 0,-5.650009 L 80,74.983339 72.16667,67.150003 c -1.56667,-1.566664 -1.56667,-4.1 0,-5.65 z"
     id="path2-8"
     style="fill:#000000;fill-opacity:1;stroke-width:0.166667"
     inkscape:export-xdpi="96.769997"
     inkscape:export-ydpi="96.769997" />
</svg>
